<svg xmlns="http://www.w3.org/2000/svg" xmlns:xlink="http://www.w3.org/1999/xlink" viewBox="0,0,256,256" width="48px" height="48px" fill-rule="none"><g fill="none" fill-rule="none" stroke="none" stroke-width="1" stroke-linecap="butt" stroke-linejoin="miter" stroke-miterlimit="10" stroke-dasharray="" stroke-dashoffset="0" font-family="none" font-weight="none" font-size="none" text-anchor="none" style="mix-blend-mode: normal"><g transform="scale(5.33333,5.33333)"><path d="M31.003,7.001l-0.001,-5.5c0,-0.828 0.672,-1.5 1.5,-1.5c0.828,0 1.5,0.672 1.5,1.5v5.5z" fill="#aed580" fill-rule="nonzero"></path><path d="M14.964,47.999h18.073c0.533,0 0.965,-0.432 0.965,-0.965v-42.07c0,-0.533 -0.432,-0.965 -0.965,-0.965h-18.073c-0.533,0 -0.965,0.432 -0.965,0.965v42.07c0,0.533 0.432,0.965 0.965,0.965z" fill="#aed580" fill-rule="nonzero"></path><path d="M17.739,29.001h12.524c0.962,0 1.741,-0.78 1.741,-1.741v-16.517c0,-0.962 -0.78,-1.741 -1.741,-1.741h-12.524c-0.962,0 -1.741,0.78 -1.741,1.741v16.517c-0.001,0.962 0.779,1.741 1.741,1.741z" fill="#ffffff" fill-rule="evenodd"></path><path d="M12.001,22.001c3.643,-0.7 5.865,-2.448 7,-5c1.135,2.552 3.357,4.3 7,5z" fill="#9b2310" fill-rule="evenodd"></path><path d="M12.001,22.001c4.273,0.867 6.476,1 11,1c5.076,0 11.712,-1.939 14,-6l-9,-4c-3.962,5.138 -6.138,9 -16,9z" fill="#e60023" fill-rule="evenodd"></path></g></g><g fill="#000000" fill-rule="nonzero" stroke="none" stroke-width="1" stroke-linecap="butt" stroke-linejoin="miter" stroke-miterlimit="10" stroke-dasharray="" stroke-dashoffset="0" font-family="none" font-weight="none" font-size="none" text-anchor="none" style="mix-blend-mode: normal"><g><path d="M90.58167,220.34833h3.23l6.2,15.47l6.2,-15.47h3.24v18.96h-2.5v-7.39l0.23,-7.96l-6.22,15.35h-1.92l-6.21,-15.32l0.25,7.93v7.39h-2.5zM125.39167,232.19833v0.22c0,2.14 -0.49333,3.86667 -1.48,5.18c-0.98,1.31333 -2.30667,1.97 -3.98,1.97v0c-1.71333,0 -3.06,-0.54333 -4.04,-1.63v0v6.78h-2.41v-19.5h2.2l0.12,1.56c0.98,-1.21333 2.34333,-1.82 4.09,-1.82v0c1.69333,0 3.03333,0.63667 4.02,1.91c0.98667,1.28 1.48,3.05667 1.48,5.33zM122.98167,232.14833v0c0,-1.59333 -0.34,-2.85 -1.02,-3.77c-0.67333,-0.92 -1.60333,-1.38 -2.79,-1.38v0c-1.45333,0 -2.54667,0.64667 -3.28,1.94v0v6.73c0.72,1.28667 1.82333,1.93 3.31,1.93v0c1.15333,0 2.07,-0.45667 2.75,-1.37c0.68667,-0.92 1.03,-2.28 1.03,-4.08zM134.29167,239.56833v0c-1.90667,0 -3.46,-0.62667 -4.66,-1.88c-1.2,-1.26 -1.8,-2.94 -1.8,-5.04v0v-0.44c0,-1.4 0.26667,-2.64667 0.8,-3.74c0.53333,-1.1 1.28,-1.96 2.24,-2.58c0.96,-0.62 2,-0.93 3.12,-0.93v0c1.83333,0 3.25667,0.60333 4.27,1.81c1.02,1.20667 1.53,2.93333 1.53,5.18v0v1h-9.55c0.03333,1.39333 0.44,2.51667 1.22,3.37c0.77333,0.85333 1.76,1.28 2.96,1.28v0c0.85333,0 1.57333,-0.17333 2.16,-0.52c0.59333,-0.34667 1.11,-0.80667 1.55,-1.38v0l1.47,1.15c-1.18,1.81333 -2.95,2.72 -5.31,2.72zM133.99167,226.93833v0c-0.97333,0 -1.79,0.35333 -2.45,1.06c-0.66,0.70667 -1.06667,1.69667 -1.22,2.97v0h7.06v-0.18c-0.07333,-1.22 -0.40333,-2.16667 -0.99,-2.84c-0.59333,-0.67333 -1.39333,-1.01 -2.4,-1.01zM150.78167,235.56833v0c0,-0.65333 -0.24667,-1.16 -0.74,-1.52c-0.49333,-0.36 -1.34667,-0.67 -2.56,-0.93c-1.22,-0.26 -2.19,-0.57333 -2.91,-0.94c-0.71333,-0.36 -1.24333,-0.79333 -1.59,-1.3c-0.34,-0.5 -0.51,-1.09667 -0.51,-1.79v0c0,-1.16 0.48667,-2.13667 1.46,-2.93c0.98,-0.8 2.23,-1.2 3.75,-1.2v0c1.59333,0 2.88667,0.41 3.88,1.23c0.99333,0.82667 1.49,1.88333 1.49,3.17v0h-2.42c0,-0.66 -0.28,-1.23 -0.84,-1.71c-0.56,-0.47333 -1.26333,-0.71 -2.11,-0.71v0c-0.88,0 -1.56667,0.19 -2.06,0.57c-0.49333,0.38 -0.74,0.88 -0.74,1.5v0c0,0.58 0.23,1.01667 0.69,1.31c0.46,0.3 1.29,0.58333 2.49,0.85c1.2,0.26667 2.17333,0.58667 2.92,0.96c0.74667,0.37333 1.3,0.82333 1.66,1.35c0.36,0.52667 0.54,1.16667 0.54,1.92v0c0,1.26 -0.50333,2.27 -1.51,3.03c-1.00667,0.76 -2.31333,1.14 -3.92,1.14v0c-1.12667,0 -2.12333,-0.2 -2.99,-0.6c-0.86667,-0.4 -1.54667,-0.96 -2.04,-1.68c-0.48667,-0.71333 -0.73,-1.48667 -0.73,-2.32v0h2.41c0.04,0.80667 0.36333,1.44667 0.97,1.92c0.6,0.47333 1.39333,0.71 2.38,0.71v0c0.91333,0 1.64667,-0.18333 2.2,-0.55c0.55333,-0.37333 0.83,-0.86667 0.83,-1.48zM167.55167,239.30833h-2.53c-0.14,-0.28 -0.25333,-0.77667 -0.34,-1.49v0c-1.12,1.16667 -2.45667,1.75 -4.01,1.75v0c-1.38667,0 -2.52667,-0.39333 -3.42,-1.18c-0.88667,-0.78667 -1.33,-1.78333 -1.33,-2.99v0c0,-1.46667 0.55667,-2.60667 1.67,-3.42c1.12,-0.80667 2.69,-1.21 4.71,-1.21v0h2.34v-1.11c0,-0.84 -0.25,-1.51 -0.75,-2.01c-0.50667,-0.5 -1.25,-0.75 -2.23,-0.75v0c-0.86,0 -1.58,0.21667 -2.16,0.65c-0.58,0.43333 -0.87,0.95667 -0.87,1.57v0h-2.42c0,-0.7 0.24667,-1.37667 0.74,-2.03c0.5,-0.66 1.18,-1.18 2.04,-1.56c0.85333,-0.38 1.79,-0.57 2.81,-0.57v0c1.62667,0 2.9,0.40667 3.82,1.22c0.92,0.80667 1.39667,1.92333 1.43,3.35v0v6.48c0,1.29333 0.16667,2.32333 0.5,3.09v0zM161.02167,237.46833v0c0.76,0 1.47667,-0.19667 2.15,-0.59c0.68,-0.38667 1.17,-0.89333 1.47,-1.52v0v-2.89h-1.89c-2.94667,0 -4.42,0.86333 -4.42,2.59v0c0,0.75333 0.25,1.34333 0.75,1.77c0.50667,0.42667 1.15333,0.64 1.94,0.64z"></path></g></g></svg>